<svg xmlns="http://www.w3.org/2000/svg" width="64" height="64" viewBox="0 0 24 24" fill="white">
  <!-- Users -->
  <path d="M8 14a4 4 0 1 1 8 0v1H8v-1Zm4-9a3 3 0 1 1 0 6 3 3 0 0 1 0-6Zm-7 9a4 4 0 1 1 8 0v1H5v-1Zm4-9a3 3 0 1 1 0 6 3 3 0 0 1 0-6Z"/>
  <!-- Gear -->
  <path d="M21.7 14.3l-1.4 1.4-1.3-1.3a4.18 4.18 0 0 1-.5.3l-.2 1.6h-2l-.2-1.6a4.18 4.18 0 0 1-.5-.3l-1.3 1.3-1.4-1.4 1.3-1.3a4.18 4.18 0 0 1-.3-.5L12 13v-2l1.6-.2c.1-.2.2-.3.3-.5l-1.3-1.3 1.4-1.4 1.3 1.3c.2-.1.3-.2.5-.3L16 8h2l.2 1.6c.2.1.3.2.5.3l1.3-1.3 1.4 1.4-1.3 1.3c.1.2.2.3.3.5L22 11v2l-1.6.2a4.18 4.18 0 0 1-.3.5l1.3 1.3Z"/>
</svg>
